<?xml version="1.0" standalone="no"?>
<!DOCTYPE svg PUBLIC "-//W3C//DTD SVG 20010904//EN"
 "http://www.w3.org/TR/2001/REC-SVG-20010904/DTD/svg10.dtd">
<svg version="1.0" xmlns="http://www.w3.org/2000/svg"
 width="587.000000pt" height="425.000000pt" viewBox="0 0 587.000000 425.000000"
 preserveAspectRatio="xMidYMid meet">

<g transform="translate(0.000000,425.000000) scale(0.100000,-0.100000)"
fill="#000000" stroke="none">
<path d="M2708 4053 c7 -3 16 -2 19 1 4 3 -2 6 -13 5 -11 0 -14 -3 -6 -6z"/>
<path d="M3218 4053 c12 -2 30 -2 40 0 9 3 -1 5 -23 4 -22 0 -30 -2 -17 -4z"/>
<path d="M3303 4043 c9 -2 25 -2 35 0 9 3 1 5 -18 5 -19 0 -27 -2 -17 -5z"/>
<path d="M2473 4023 c9 -2 25 -2 35 0 9 3 1 5 -18 5 -19 0 -27 -2 -17 -5z"/>
<path d="M3468 4023 c6 -2 18 -2 25 0 6 3 1 5 -13 5 -14 0 -19 -2 -12 -5z"/>
<path d="M2343 4003 c9 -2 23 -2 30 0 6 3 -1 5 -18 5 -16 0 -22 -2 -12 -5z"/>
<path d="M2288 3993 c6 -2 18 -2 25 0 6 3 1 5 -13 5 -14 0 -19 -2 -12 -5z"/>
<path d="M2340 3971 c-39 -12 -92 -41 -125 -69 -16 -14 -55 -37 -85 -51 l-55
-26 95 -6 c52 -3 113 -12 136 -18 53 -16 116 0 156 39 37 37 36 73 -1 111 -31
30 -67 36 -121 20z"/>
<path d="M2075 3960 c-13 -6 -15 -9 -5 -9 8 0 22 4 30 9 18 12 2 12 -25 0z"/>
<path d="M3637 3953 c-3 -5 8 -8 24 -9 15 -1 26 3 23 7 -6 11 -41 12 -47 2z"/>
<path d="M1950 3930 c-14 -5 -52 -16 -85 -26 -33 -9 -64 -22 -70 -27 -7 -7 -4
-8 8 -3 10 3 57 17 104 31 83 24 112 36 82 34 -8 0 -25 -4 -39 -9z"/>
<path d="M4034 3902 c8 -13 144 -57 152 -49 3 2 -28 15 -68 27 -40 13 -77 25
-82 28 -5 3 -6 0 -2 -6z"/>
<path d="M1905 3883 c-45 -9 -123 -36 -170 -58 -305 -140 -429 -215 -608 -369
-92 -79 -229 -247 -214 -263 6 -5 59 21 79 39 16 16 71 57 120 90 20 14 80 65
133 114 52 49 119 102 148 118 29 16 66 39 82 51 38 28 221 115 300 143 33 11
95 26 138 33 81 12 107 27 107 59 0 29 -66 54 -115 43z"/>
<path d="M3970 3881 c0 -5 7 -11 15 -15 8 -3 24 -20 36 -38 12 -18 18 -25 15
-14 -13 38 -66 93 -66 67z"/>
<path d="M1730 3860 c-13 -9 -13 -10 0 -10 8 0 22 5 30 10 13 9 13 10 0 10 -8
0 -22 -5 -30 -10z"/>
<path d="M1655 3825 c-27 -13 -95 -42 -150 -65 -55 -22 -122 -53 -150 -67 -27
-15 -68 -36 -90 -47 -78 -40 -281 -194 -370 -281 -56 -55 -174 -198 -222 -270
-66 -98 -149 -265 -173 -345 -13 -41 -26 -79 -30 -85 -13 -17 -58 -206 -69
-285 -30 -226 -21 -458 25 -645 43 -172 133 -411 183 -484 67 -99 193 -243
311 -357 176 -169 211 -196 355 -274 44 -24 87 -47 95 -51 38 -21 171 -79 225
-99 341 -123 505 -165 901 -230 181 -30 821 -40 964 -16 74 13 75 13 35 20
-81 15 -75 2 -74 159 0 88 3 134 9 121 7 -19 27 -30 83 -48 15 -5 16 -13 11
-59 -7 -61 8 -122 33 -131 10 -4 13 -14 10 -27 -5 -18 -2 -20 21 -15 15 3 56
10 92 15 106 16 172 29 224 46 28 8 106 29 175 46 69 17 158 40 196 51 l70 21
-130 42 c-174 57 -204 70 -215 97 -7 18 -9 12 -9 -32 -2 -103 -10 -129 -45
-139 l-31 -9 33 -1 c28 -1 33 -4 30 -23 -4 -31 -21 -32 -57 -2 -21 18 -37 24
-49 18 -16 -7 -16 -7 0 -11 14 -4 15 -8 6 -28 -12 -26 -34 -35 -95 -35 -52 0
-56 17 -12 42 30 18 30 19 24 73 -5 40 -4 60 6 72 13 15 12 15 -8 5 -27 -15
-46 -15 -38 -2 3 6 2 10 -4 10 -5 0 -13 -5 -16 -10 -3 -6 -1 -10 4 -10 7 0 11
-24 11 -59 l0 -59 -47 -16 c-52 -18 -99 -21 -107 -7 -3 5 10 23 29 40 38 33
46 66 18 74 -10 2 -54 15 -98 27 -44 11 -85 26 -92 32 -16 13 -17 74 -2 133 6
24 9 50 7 57 -3 7 -11 -22 -18 -65 -8 -42 -17 -77 -21 -77 -3 0 -12 27 -18 61
-7 34 -14 59 -17 57 -2 -3 -6 -80 -9 -171 -5 -145 -3 -167 10 -167 19 0 20
-27 1 -46 -13 -12 -21 -11 -60 13 -25 15 -48 34 -51 41 -21 55 -31 429 -12
449 9 9 67 -18 88 -41 11 -11 19 -15 19 -8 0 6 -4 14 -10 17 -13 8 -13 35 -1
35 5 0 11 -9 13 -21 4 -29 78 -56 94 -34 6 8 16 15 23 15 12 0 9 59 -10 153
-12 62 -12 108 0 87 8 -14 34 -131 46 -212 5 -34 9 -38 36 -38 28 0 30 2 25
33 -3 17 -8 55 -11 82 -6 48 -23 144 -46 253 -6 33 -17 56 -29 62 -10 6 -61
10 -113 10 -92 0 -95 -1 -113 -27 -30 -44 -61 -112 -97 -214 l-35 -95 29 -13
c16 -7 29 -19 29 -27 0 -23 -26 -16 -58 15 -16 16 -49 35 -73 41 -59 16 -162
50 -284 96 -55 20 -170 60 -255 89 l-155 51 -3 65 c-3 91 -10 98 -11 12 -1
-40 -3 -73 -5 -73 -1 0 -34 12 -72 26 -38 14 -77 28 -86 31 -10 3 -18 9 -18
14 0 17 -47 9 -65 -11 -23 -25 -65 -27 -65 -2 0 9 4 23 9 31 25 39 -31 57 -64
21 -13 -14 -31 -20 -61 -20 -24 0 -47 -6 -51 -12 -24 -38 -39 -38 -83 -6 -46
34 -74 38 -165 23 -36 -6 -42 -4 -54 18 -7 14 -24 30 -37 36 -28 12 -31 37 -7
63 14 15 14 22 3 42 -10 20 -10 29 6 55 14 24 16 35 7 53 -11 23 -22 66 -26
102 -1 12 9 25 28 36 38 21 42 51 15 97 l-21 36 21 22 c13 14 20 35 20 63 0
23 3 42 8 42 13 0 42 61 42 90 0 15 7 33 15 40 9 7 15 30 15 54 1 43 18 76 40
76 9 0 11 -11 7 -36 -4 -21 -1 -46 5 -58 7 -12 13 -36 15 -54 1 -19 8 -41 15
-49 7 -9 13 -23 13 -32 0 -9 8 -16 20 -16 15 0 21 8 23 32 2 18 -1 40 -6 50
-7 11 -7 26 0 42 6 18 5 32 -3 48 -10 19 -10 31 -1 57 7 18 12 39 12 48 0 8
16 33 35 54 19 21 35 42 35 46 0 4 4 8 10 8 5 0 14 -17 20 -39 5 -21 17 -44
25 -51 8 -7 15 -18 15 -26 0 -7 9 -18 21 -24 16 -9 19 -17 14 -41 -4 -17 -2
-29 4 -29 6 0 9 -20 7 -47 -1 -27 2 -54 7 -60 6 -8 5 -24 -3 -42 -7 -17 -9
-39 -4 -53 4 -13 8 -32 8 -43 2 -36 31 -23 34 15 2 20 12 40 23 48 15 10 19
21 14 42 -5 22 -1 30 20 44 14 9 25 22 25 29 1 18 49 69 59 63 5 -3 8 -33 8
-65 -1 -45 3 -64 17 -80 17 -18 17 -25 6 -65 -15 -53 -7 -83 26 -98 29 -14 31
-34 4 -43 -46 -14 -13 -23 108 -29 70 -4 152 -8 182 -10 30 -2 44 -1 30 1 -34
6 -38 17 -29 66 4 23 8 90 9 148 0 76 4 108 13 111 6 3 33 3 60 0 l47 -4 0
-152 c0 -105 -4 -156 -12 -164 -9 -9 -5 -12 18 -12 l31 0 -5 74 c-4 69 -3 73
18 79 12 3 37 3 57 0 l36 -6 -6 -79 c-6 -73 -5 -78 13 -78 19 0 20 8 20 164 0
153 1 165 19 171 11 3 31 3 46 -1 l26 -6 -3 -164 c-3 -151 -2 -164 15 -164 15
0 17 10 17 75 l0 75 50 0 50 0 0 -68 c0 -40 -5 -73 -12 -80 -9 -9 -3 -12 27
-12 30 0 36 3 27 12 -13 13 -17 252 -6 295 7 25 39 35 84 26 l32 -6 -7 -151
c-4 -83 -11 -155 -16 -160 -15 -17 -10 -24 16 -22 24 1 25 3 25 79 l0 77 61 0
61 0 -4 -80 c-3 -78 -2 -80 21 -80 18 0 22 4 16 17 -3 10 -3 84 1 165 l7 148
60 0 60 0 -8 -152 c-4 -84 -11 -161 -16 -170 -8 -16 -5 -18 27 -18 30 0 34 2
25 14 -7 9 -11 40 -9 78 l3 63 43 3 c48 4 47 7 33 -100 -5 -45 -4 -59 7 -63
36 -13 37 -8 37 167 l0 173 49 3 49 3 -7 -133 c-4 -73 -9 -152 -13 -175 -5
-42 -4 -43 22 -43 26 0 27 2 21 35 -4 20 -4 56 0 81 l7 46 58 -4 c53 -3 59 -1
59 17 0 18 -7 20 -57 20 l-58 0 2 120 c2 66 5 144 9 173 l5 52 49 0 c36 0 52
-5 59 -17 8 -14 10 -8 11 27 0 28 -4 40 -9 32 -6 -10 -22 -11 -60 -6 l-52 7 3
66 3 66 60 0 60 0 3 109 3 109 -23 -7 c-13 -4 -80 -19 -150 -33 -71 -14 -128
-30 -128 -34 0 -4 12 -10 28 -12 15 -3 -27 -3 -93 0 -66 2 -121 8 -123 13 -2
5 -19 6 -38 3 -18 -3 -100 0 -181 6 -82 6 -213 16 -293 22 -80 7 -197 17 -260
23 l-115 12 3 151 3 151 -43 5 c-24 4 -106 9 -183 13 -123 6 -189 10 -190 13
0 1 -50 3 -110 6 -61 2 -154 7 -207 11 l-98 7 0 -35 c0 -46 -35 -97 -85 -125
-22 -12 -46 -27 -52 -33 -10 -8 -13 -113 -13 -459 0 -387 -2 -450 -15 -461
-19 -16 -19 -53 1 -91 19 -37 13 -55 -21 -71 -26 -11 -26 -14 -20 -72 4 -34
12 -67 17 -73 7 -9 6 -23 -3 -45 -8 -18 -15 -49 -15 -68 -1 -19 -4 -44 -8 -55
-5 -15 2 -31 27 -60 27 -32 33 -45 26 -62 -6 -17 -14 -22 -31 -19 -13 3 -40 5
-60 5 -26 1 -38 6 -41 19 -4 16 -5 16 -6 0 -1 -16 -13 -18 -95 -18 l-93 0 -79
82 -79 83 45 6 45 6 -47 1 c-43 2 -50 6 -72 39 -14 20 -23 40 -20 45 3 4 -2 8
-10 8 -10 0 -13 -6 -9 -17 3 -10 -23 19 -58 64 -94 121 -166 269 -200 410 -19
78 -20 106 -15 255 7 166 23 254 67 353 99 224 434 472 624 463 l60 -3 -70
-14 c-69 -13 -140 -40 -220 -83 -51 -27 -195 -136 -195 -147 0 -13 527 -3 577
10 23 6 60 27 83 46 37 32 40 39 40 84 0 59 -18 74 -100 84 -30 3 -68 9 -85
12 l-29 6 34 11 c29 10 46 7 129 -20 53 -18 115 -35 138 -39 95 -15 212 36
246 108 10 21 27 37 41 41 13 3 46 26 73 51 28 24 53 42 57 38 3 -3 7 -2 7 3
7 58 7 65 -9 73 -27 15 -318 -46 -436 -91 -28 -11 -94 -34 -146 -52 -53 -18
-110 -41 -127 -50 -34 -17 -63 -21 -63 -8 1 9 275 121 385 157 128 42 140 45
171 46 16 0 47 6 69 14 l40 13 -63 1 c-85 1 -268 -32 -411 -74 -110 -33 -346
-144 -652 -307 -58 -31 -103 -49 -113 -45 -21 8 -20 52 3 103 17 38 121 167
166 207 136 120 337 239 485 287 82 26 210 36 270 20 237 -63 315 -64 503 -8
73 22 86 38 15 20 -89 -24 -229 -33 -307 -22 -90 13 -211 48 -211 60 0 28 149
55 297 55 75 0 109 3 102 10 -6 6 -69 10 -152 9 -118 -1 -161 -6 -252 -28
-101 -25 -291 -86 -407 -132 -58 -22 -74 -11 -33 23 126 103 244 182 351 233
66 32 131 61 143 65 12 4 20 9 17 12 -14 14 -264 -101 -391 -180 -50 -30 -136
-98 -192 -149 -55 -51 -114 -100 -129 -108 -16 -8 -62 -40 -104 -71 -75 -57
-130 -89 -150 -89 -50 0 67 171 210 306 72 68 216 183 239 192 8 3 46 25 84
48 38 23 114 62 170 85 56 23 109 48 117 55 19 18 14 17 -45 -11z m240 -986
c66 -6 235 -14 375 -17 l255 -7 -2 -50 c0 -27 -5 -276 -10 -552 -5 -276 -11
-504 -13 -507 -3 -2 -51 -2 -108 1 -76 4 -102 9 -102 19 0 8 -9 41 -21 74 -11
33 -18 64 -14 70 3 5 -1 20 -8 32 -8 13 -20 48 -27 78 -18 87 -24 103 -37 108
-7 2 -39 -24 -71 -57 -33 -34 -63 -61 -69 -61 -6 0 -13 19 -17 43 -13 92 -19
114 -45 166 -75 152 -78 154 -155 60 -31 -38 -56 -78 -56 -88 0 -28 -11 -52
-21 -45 -5 3 -9 18 -9 35 0 45 -33 38 -72 -16 -18 -24 -36 -44 -40 -45 -5 0
-9 116 -10 258 -3 344 -4 323 23 344 52 40 69 61 93 114 14 30 29 54 33 54 4
0 62 -5 128 -11z m663 -373 l-3 -54 48 -5 c26 -4 52 -9 57 -12 11 -7 13 -139
4 -273 l-7 -92 -43 0 c-79 0 -74 -16 -74 251 0 166 3 239 11 239 7 0 10 -20 7
-54z m1348 -29 c4 -4 -11 -7 -33 -7 -62 0 -163 12 -159 19 5 8 183 -3 192 -12z
m-1122 -43 c13 -5 16 -22 16 -85 l0 -79 -55 0 -55 0 0 59 c0 84 12 111 49 111
16 0 36 -3 45 -6z m141 -14 c4 -6 3 -89 -1 -185 l-7 -175 -43 0 -44 0 0 163
c0 203 1 207 51 207 21 0 41 -5 44 -10z m132 -12 c14 -19 1 -153 -14 -152 -7
1 -29 2 -48 3 l-35 1 0 80 0 80 44 0 c24 0 48 -6 53 -12z m145 -14 c2 -9 2
-91 0 -181 l-3 -164 -52 3 -52 3 -3 155 c-4 202 -4 200 57 200 38 0 50 -4 53
-16z m154 -8 c7 -7 8 -35 5 -76 l-6 -65 -50 -3 c-27 -1 -55 1 -62 6 -9 6 -19
111 -14 154 1 11 115 -3 127 -16z m145 -17 c8 -16 9 -66 4 -175 -8 -172 -8
-172 -86 -159 l-40 7 6 161 c4 89 8 168 10 175 3 7 22 12 49 12 36 0 48 -4 57
-21z m117 -68 c3 -72 3 -73 -20 -67 -13 3 -31 6 -40 6 -16 0 -18 10 -18 71 l0
70 38 -3 37 -3 3 -74z m130 -1 c2 -41 0 -121 -3 -178 l-7 -103 -46 3 -47 3 3
160 c2 88 6 168 9 178 4 14 13 17 46 15 l42 -3 3 -75z m-948 -234 c0 -106 -4
-167 -11 -171 -6 -4 -30 -4 -55 0 l-44 6 0 165 0 164 55 0 55 0 0 -164z m257
24 c1 -69 0 -144 -3 -167 l-6 -43 -49 0 -49 0 0 148 c0 193 0 194 59 190 l46
-3 2 -125z m294 -45 c-1 -88 -5 -163 -7 -167 -8 -12 -112 -9 -119 3 -4 5 -4
82 0 170 l8 160 60 -3 61 -3 -3 -160z m267 45 c2 -58 0 -133 -3 -168 -7 -69
-19 -81 -63 -66 l-27 9 4 160 c1 88 5 164 8 168 3 4 21 7 41 5 l37 -3 3 -105z
m-1811 -938 c53 -27 251 -104 380 -147 59 -20 124 -44 143 -52 19 -9 53 -24
75 -33 22 -10 90 -39 150 -65 166 -72 425 -209 425 -225 0 -12 -120 -100 -137
-100 -7 0 -60 24 -116 53 -88 46 -163 81 -362 167 -77 34 -341 153 -423 191
-46 22 -85 39 -87 39 -2 0 -43 18 -92 41 -48 23 -110 50 -136 60 -27 11 -63
27 -80 36 l-32 16 80 17 c44 10 91 22 105 27 26 11 44 7 107 -25z m262 3 c22
-11 36 -12 64 -3 40 12 42 11 442 -127 121 -41 289 -99 373 -127 108 -38 152
-57 152 -68 0 -25 30 -60 51 -60 11 0 24 11 31 25 12 26 24 30 46 16 23 -14
-98 -109 -180 -140 -21 -8 -31 -7 -41 3 -7 8 -45 29 -83 48 -38 19 -125 63
-194 99 -135 69 -220 109 -315 146 -33 13 -69 28 -80 33 -11 6 -105 39 -210
75 -239 82 -227 77 -185 85 59 12 100 11 129 -5z m-530 -79 c47 -24 131 -62
186 -84 55 -22 186 -82 290 -132 105 -51 222 -105 261 -120 39 -16 100 -42
135 -58 35 -16 133 -60 217 -97 84 -37 155 -72 158 -76 3 -5 -12 -17 -33 -26
-21 -9 -45 -22 -53 -29 -15 -11 -32 -17 -99 -34 -39 -10 -32 -12 -281 108 -80
38 -179 86 -220 105 -325 151 -445 212 -535 267 -33 20 -89 53 -125 73 -36 20
-85 55 -110 78 -51 49 -47 54 49 58 31 1 58 4 60 7 7 7 12 5 100 -40z m-237
-42 c62 -50 140 -105 187 -132 141 -81 276 -148 606 -302 202 -94 405 -194
405 -201 0 -10 -55 -26 -117 -34 -41 -5 -80 0 -180 25 -71 18 -132 36 -138 40
-5 4 -55 19 -110 33 -134 34 -225 62 -266 80 -19 9 -78 34 -131 55 -53 22
-123 57 -155 78 -32 22 -70 45 -85 53 -76 39 -358 310 -358 344 0 9 35 12 139
12 l139 0 64 -51z m1963 -109 c-5 -62 -10 -75 -22 -71 -8 3 -19 6 -25 6 -6 0
-7 13 -3 32 10 46 44 122 51 115 4 -3 3 -40 -1 -82z"/>
<path d="M2266 2679 c-19 -15 -26 -30 -26 -55 0 -49 12 -68 59 -89 37 -16 42
-16 64 -2 13 8 30 29 37 46 11 27 10 34 -9 65 -12 19 -35 39 -53 45 -41 14
-41 14 -72 -10z m74 -89 c50 -8 47 -34 -5 -38 -46 -3 -85 24 -85 60 0 20 1 20
28 2 15 -10 43 -20 62 -24z"/>
<path d="M4210 3842 c8 -5 26 -13 40 -16 17 -5 20 -4 10 2 -8 5 -26 13 -40 16
-17 5 -20 4 -10 -2z"/>
<path d="M4104 3824 c-18 -14 -18 -15 4 -4 12 6 22 13 22 15 0 8 -5 6 -26 -11z"/>
<path d="M2595 3793 c-43 -22 -62 -26 -130 -26 l-80 1 25 -19 c14 -11 32 -26
40 -32 29 -24 106 -47 155 -47 94 0 150 61 108 118 -26 36 -58 37 -118 5z"/>
<path d="M2110 3792 c-19 -4 -90 -35 -157 -70 -129 -65 -133 -67 -133 -54 0 4
36 25 80 47 44 21 78 41 76 43 -16 15 -354 -147 -519 -249 -94 -58 -92 -57
-85 -65 3 -3 32 6 64 19 51 21 106 40 229 77 17 5 82 20 146 34 161 36 298 36
395 1 38 -14 84 -25 102 -25 95 0 168 83 132 149 -5 10 -47 35 -94 55 -88 37
-169 50 -236 38z"/>
<path d="M4360 3751 c41 -21 79 -36 85 -33 10 6 -121 71 -145 72 -8 0 19 -17
60 -39z"/>
<path d="M4370 3786 c0 -2 7 -7 16 -10 8 -3 12 -2 9 4 -6 10 -25 14 -25 6z"/>
<path d="M1875 3760 c-16 -7 -17 -9 -3 -9 9 -1 20 4 23 9 7 11 7 11 -20 0z"/>
<path d="M3570 3758 c0 -9 7 -23 15 -32 16 -15 20 -36 8 -36 -4 0 -18 10 -32
23 -13 12 0 -8 30 -44 61 -74 146 -139 181 -139 18 0 13 5 -22 22 -59 29 -140
108 -140 136 0 12 -9 36 -20 54 -12 21 -20 27 -20 16z"/>
<path d="M3636 3761 c-4 -5 3 -7 14 -4 23 6 26 13 6 13 -8 0 -17 -4 -20 -9z"/>
<path d="M3815 3760 c-3 -6 1 -7 9 -4 18 7 21 14 7 14 -6 0 -13 -4 -16 -10z"/>
<path d="M4410 3768 c14 -16 150 -77 154 -69 3 4 -25 20 -62 36 -85 35 -98 39
-92 33z"/>
<path d="M3356 3703 c-6 -14 -5 -15 5 -6 7 7 10 15 7 18 -3 3 -9 -2 -12 -12z"/>
<path d="M3745 3710 c-3 -5 -1 -10 4 -10 6 0 11 5 11 10 0 6 -2 10 -4 10 -3 0
-8 -4 -11 -10z"/>
<path d="M4140 3713 c0 -12 38 -48 45 -41 3 2 -6 15 -20 28 -14 13 -25 19 -25
13z"/>
<path d="M2580 3617 c-14 -8 -48 -28 -76 -45 -28 -18 -58 -32 -67 -32 -28 0
-27 -16 1 -43 53 -50 147 -48 207 5 41 35 46 73 15 106 -24 25 -45 27 -80 9z"/>
<path d="M3350 3597 c0 -14 31 -69 36 -64 3 3 -4 20 -15 38 -12 19 -21 30 -21
26z"/>
<path d="M4720 3597 c0 -3 44 -39 98 -80 53 -41 110 -88 125 -105 26 -27 27
-31 12 -46 -9 -9 -22 -16 -28 -17 -7 0 13 -9 43 -21 56 -21 111 -57 143 -93
10 -11 56 -74 104 -139 111 -155 153 -244 123 -259 -6 -3 -5 -4 2 -3 21 5 11
71 -18 124 -14 26 -43 70 -63 97 -21 28 -44 62 -52 77 -31 59 -129 157 -185
184 -50 24 -55 30 -49 52 5 21 -3 33 -52 79 -32 30 -80 69 -108 88 -27 19 -60
42 -72 51 -13 9 -23 14 -23 11z"/>
<path d="M3830 3560 c8 -5 20 -10 25 -10 6 0 3 5 -5 10 -8 5 -19 10 -25 10 -5
0 -3 -5 5 -10z"/>
<path d="M3890 3540 c8 -5 30 -10 49 -10 45 0 37 6 -19 14 -31 4 -40 3 -30 -4z"/>
<path d="M4061 3539 c-35 -4 -65 -9 -66 -11 -2 -2 39 -3 91 -3 52 0 94 3 94 6
0 8 -28 19 -43 18 -7 -1 -41 -5 -76 -10z"/>
<path d="M1942 3525 c-46 -7 -86 -15 -89 -19 -20 -20 199 -58 298 -51 103 8
209 36 209 56 0 21 -58 29 -193 28 -78 -1 -179 -7 -225 -14z"/>
<path d="M4353 3513 c40 -29 47 -43 20 -44 -10 0 11 -11 47 -23 99 -36 109
-38 63 -16 -24 12 -43 25 -43 30 0 6 -5 10 -11 10 -6 0 -30 16 -53 35 -24 19
-47 35 -52 35 -5 0 8 -12 29 -27z"/>
<path d="M4048 3493 c6 -2 18 -2 25 0 6 3 1 5 -13 5 -14 0 -19 -2 -12 -5z"/>
<path d="M4208 3493 c7 -3 16 -2 19 1 4 3 -2 6 -13 5 -11 0 -14 -3 -6 -6z"/>
<path d="M4258 3483 c7 -3 16 -2 19 1 4 3 -2 6 -13 5 -11 0 -14 -3 -6 -6z"/>
<path d="M4550 3467 c0 -25 277 -103 296 -84 3 3 -16 8 -43 12 -70 10 -150 33
-205 61 -35 18 -48 21 -48 11z"/>
<path d="M3603 3463 c9 -2 23 -2 30 0 6 3 -1 5 -18 5 -16 0 -22 -2 -12 -5z"/>
<path d="M3981 3459 c-1 -9 7 -23 17 -30 15 -12 16 -12 6 1 -6 8 -14 22 -17
30 -5 13 -6 12 -6 -1z"/>
<path d="M4190 3418 c27 -28 59 -75 71 -105 12 -29 28 -53 35 -53 22 0 -40
106 -94 163 -26 26 -50 47 -54 47 -4 0 15 -23 42 -52z"/>
<path d="M2367 3439 c-113 -60 -351 -79 -470 -37 -87 30 -223 35 -324 13 -77
-17 -235 -82 -323 -133 -105 -61 -350 -296 -370 -356 -23 -71 -11 -72 117 -5
65 34 134 72 153 84 172 105 487 223 706 264 66 12 227 13 317 2 67 -8 150 6
187 32 13 9 29 17 35 17 13 0 35 70 35 110 0 35 -11 37 -63 9z"/>
<path d="M3685 3440 l-40 -7 35 -1 c19 0 44 3 55 8 24 10 7 10 -50 0z"/>
<path d="M3898 3433 c7 -3 16 -2 19 1 4 3 -2 6 -13 5 -11 0 -14 -3 -6 -6z"/>
<path d="M3980 3399 c19 -12 44 -29 55 -38 20 -16 20 -16 0 8 -11 12 -32 29
-47 37 -42 22 -47 16 -8 -7z"/>
<path d="M4318 3413 c12 -2 32 -2 45 0 12 2 2 4 -23 4 -25 0 -35 -2 -22 -4z"/>
<path d="M4550 3396 c28 -17 50 -21 35 -7 -6 5 -21 12 -35 15 l-25 7 25 -15z"/>
<path d="M3620 3390 c-15 -4 15 -7 72 -6 53 1 94 4 91 9 -5 9 -130 7 -163 -3z"/>
<path d="M3523 3352 c-78 -50 -65 -125 25 -152 24 -7 60 -10 82 -6 22 3 59 9
83 12 65 9 75 13 55 25 -12 7 -35 5 -74 -7 -97 -28 -202 -3 -213 51 -3 17 40
63 85 92 11 6 15 12 9 12 -5 0 -29 -12 -52 -27z"/>
<path d="M4380 3360 c-21 -21 -26 -55 -10 -65 5 -3 7 0 4 9 -8 20 13 55 39 66
17 7 18 9 5 9 -10 1 -27 -8 -38 -19z"/>
<path d="M4504 3364 c41 -15 53 -13 41 5 -3 6 -23 11 -43 10 l-37 0 39 -15z"/>
<path d="M4600 3376 c0 -3 9 -10 20 -16 11 -6 20 -8 20 -6 0 3 -9 10 -20 16
-11 6 -20 8 -20 6z"/>
<path d="M3462 3345 c0 -16 2 -22 5 -12 2 9 2 23 0 30 -3 6 -5 -1 -5 -18z"/>
<path d="M4661 3346 c2 -2 45 -31 96 -65 80 -54 238 -187 344 -291 30 -30 82
-89 165 -188 37 -44 74 -126 62 -139 -7 -9 -7 -13 1 -13 23 0 22 28 -2 78 -51
106 -304 370 -489 511 -32 24 -55 48 -51 54 3 6 1 7 -5 3 -14 -9 -73 21 -69
35 1 6 -11 13 -27 14 -15 2 -27 2 -25 1z"/>
<path d="M4159 3256 c66 -62 117 -96 143 -96 7 0 -5 9 -27 20 -22 11 -69 47
-105 80 -36 33 -68 60 -72 60 -4 0 23 -29 61 -64z"/>
<path d="M2655 3280 c-3 -5 -1 -10 4 -10 6 0 11 5 11 10 0 6 -2 10 -4 10 -3 0
-8 -4 -11 -10z"/>
<path d="M2909 3261 c-13 -11 -22 -21 -19 -23 3 -2 16 6 29 19 29 28 22 30
-10 4z"/>
<path d="M4330 3276 c0 -2 7 -7 16 -10 8 -3 12 -2 9 4 -6 10 -25 14 -25 6z"/>
<path d="M2663 3200 c0 -25 2 -35 4 -22 2 12 2 32 0 45 -2 12 -4 2 -4 -23z"/>
<path d="M5286 3155 c80 -109 83 -112 53 -57 -13 24 -46 66 -72 95 -42 46 -40
41 19 -38z"/>
<path d="M2742 3200 c0 -14 2 -19 5 -12 2 6 2 18 0 25 -3 6 -5 1 -5 -13z"/>
<path d="M2982 3190 c0 -19 2 -27 5 -17 2 9 2 25 0 35 -3 9 -5 1 -5 -18z"/>
<path d="M3836 3210 c12 -5 53 -5 90 -1 l69 8 -90 1 c-60 1 -83 -2 -69 -8z"/>
<path d="M4260 3216 c0 -2 7 -7 16 -10 8 -3 12 -2 9 4 -6 10 -25 14 -25 6z"/>
<path d="M4430 3195 c13 -14 26 -25 28 -25 3 0 -5 11 -18 25 -13 14 -26 25
-28 25 -3 0 5 -11 18 -25z"/>
<path d="M3177 3189 c4 -13 8 -18 11 -10 2 7 -1 18 -6 23 -8 8 -9 4 -5 -13z"/>
<path d="M4065 3200 c44 -11 67 -11 60 0 -3 6 -25 9 -48 9 -40 -1 -40 -2 -12
-9z"/>
<path d="M3918 3193 c7 -3 16 -2 19 1 4 3 -2 6 -13 5 -11 0 -14 -3 -6 -6z"/>
<path d="M4150 3190 c0 -6 7 -10 15 -10 8 0 15 2 15 4 0 2 -7 6 -15 10 -8 3
-15 1 -15 -4z"/>
<path d="M2891 3164 c0 -11 3 -14 6 -6 3 7 2 16 -1 19 -3 4 -6 -2 -5 -13z"/>
<path d="M3100 3166 c0 -9 -4 -14 -10 -11 -12 8 -13 -5 -1 -24 8 -12 11 -9 17
12 3 16 4 31 0 34 -3 4 -6 -1 -6 -11z"/>
<path d="M3705 3170 c-3 -5 1 -10 9 -10 8 0 18 5 21 10 3 6 -1 10 -9 10 -8 0
-18 -4 -21 -10z"/>
<path d="M3763 3169 c14 -8 22 -8 30 0 8 8 3 11 -18 11 -26 -1 -28 -2 -12 -11z"/>
<path d="M4028 3173 c6 -2 18 -2 25 0 6 3 1 5 -13 5 -14 0 -19 -2 -12 -5z"/>
<path d="M4088 3163 c6 -2 18 -2 25 0 6 3 1 5 -13 5 -14 0 -19 -2 -12 -5z"/>
<path d="M4348 3148 c6 -6 18 -8 28 -6 14 3 12 5 -9 10 -19 3 -25 2 -19 -4z"/>
<path d="M2981 3134 c0 -11 3 -14 6 -6 3 7 2 16 -1 19 -3 4 -6 -2 -5 -13z"/>
<path d="M4110 3134 c56 -17 62 -17 30 1 -14 8 -36 14 -50 14 -18 0 -12 -4 20
-15z"/>
<path d="M4217 3138 c17 -7 35 -16 39 -20 4 -5 17 -8 29 -8 12 0 53 -11 91
-25 82 -30 92 -31 43 -5 -36 19 -159 58 -209 66 -20 3 -18 1 7 -8z"/>
<path d="M3182 3120 c0 -14 2 -19 5 -12 2 6 2 18 0 25 -3 6 -5 1 -5 -13z"/>
<path d="M3356 3131 c-4 -7 -5 -15 -2 -18 9 -9 19 4 14 18 -4 11 -6 11 -12 0z"/>
<path d="M3647 3116 c-11 -37 8 -90 39 -110 31 -21 31 -10 0 15 -20 16 -26 30
-28 72 -3 45 -4 48 -11 23z"/>
<path d="M3707 3133 c-10 -10 -8 -66 3 -83 7 -11 10 0 10 38 0 53 -1 57 -13
45z"/>
<path d="M2680 3119 c0 -5 9 -9 20 -9 11 0 20 2 20 4 0 2 -9 6 -20 9 -11 3
-20 1 -20 -4z"/>
<path d="M3421 3114 c0 -11 3 -14 6 -6 3 7 2 16 -1 19 -3 4 -6 -2 -5 -13z"/>
<path d="M3765 3099 c6 -30 15 -37 15 -11 0 11 -4 23 -9 27 -6 3 -8 -4 -6 -16z"/>
<path d="M3280 3100 c0 -5 5 -10 11 -10 5 0 7 5 4 10 -3 6 -8 10 -11 10 -2 0
-4 -4 -4 -10z"/>
<path d="M3580 3098 c0 -7 5 -20 10 -28 8 -12 10 -11 10 7 0 12 -4 25 -10 28
-5 3 -10 0 -10 -7z"/>
<path d="M3893 3098 c-11 -19 -12 -38 -4 -62 7 -16 9 -11 12 27 4 51 4 53 -8
35z"/>
<path d="M3934 3101 c4 -5 0 -12 -6 -14 -7 -3 -2 -6 11 -6 20 -1 21 1 11 14
-14 16 -25 21 -16 6z"/>
<path d="M4007 3085 c-15 -10 -17 -21 -12 -45 4 -17 9 -29 12 -26 5 4 23 87
19 86 0 0 -9 -7 -19 -15z"/>
<path d="M2713 2985 c0 -44 2 -61 4 -37 2 23 2 59 0 80 -2 20 -4 1 -4 -43z"/>
<path d="M3947 3053 c-11 -10 -8 -43 3 -43 6 0 10 11 10 25 0 26 -2 29 -13 18z"/>
<path d="M4157 3047 c-3 -8 -1 -20 3 -28 14 -22 -9 -39 -51 -39 -22 0 -39 -4
-39 -10 0 -13 11 -13 65 1 42 11 43 12 40 46 -4 39 -10 50 -18 30z"/>
<path d="M4346 3045 c-22 -8 -43 -12 -47 -9 -4 2 -10 0 -14 -6 -10 -16 -28
-12 -21 6 3 8 2 12 -4 9 -6 -3 -10 -13 -10 -21 0 -20 -18 -18 -23 4 -4 13 -5
11 -6 -5 -1 -13 -7 -23 -16 -23 -8 0 -15 -4 -15 -8 0 -4 9 -8 20 -8 11 0 20 4
20 9 0 5 6 7 14 4 8 -3 16 -1 18 5 3 7 12 9 22 5 11 -4 16 -13 12 -22 -3 -8
-1 -15 4 -15 6 0 10 11 10 24 0 25 27 36 94 36 29 1 30 1 12 15 -23 18 -21 18
-70 0z"/>
<path d="M4480 3050 c8 -5 20 -10 25 -10 6 0 3 5 -5 10 -8 5 -19 10 -25 10 -5
0 -3 -5 5 -10z"/>
<path d="M5130 3035 c13 -14 26 -25 28 -25 3 0 -5 11 -18 25 -13 14 -26 25
-28 25 -3 0 5 -11 18 -25z"/>
<path d="M2462 2978 c1 -63 2 -66 5 -20 4 53 19 70 25 30 3 -18 5 -16 9 10 5
29 3 32 -14 26 -16 -5 -19 -3 -14 10 4 9 2 16 -3 16 -6 0 -9 -31 -8 -72z"/>
<path d="M5369 3032 c6 -12 16 -24 22 -28 8 -4 8 -1 0 14 -6 12 -16 24 -22 28
-8 4 -8 1 0 -14z"/>
<path d="M2641 3024 c0 -11 3 -14 6 -6 3 7 2 16 -1 19 -3 4 -6 -2 -5 -13z"/>
<path d="M3500 3030 c0 -5 5 -10 10 -10 6 0 10 5 10 10 0 6 -4 10 -10 10 -5 0
-10 -4 -10 -10z"/>
<path d="M4540 3026 c28 -17 50 -21 35 -7 -6 5 -21 12 -35 15 l-25 7 25 -15z"/>
<path d="M2164 3014 c-18 -14 -18 -15 6 -8 31 8 50 24 29 24 -8 0 -24 -7 -35
-16z"/>
<path d="M2407 3022 c6 -4 13 -32 16 -62 l3 -55 2 63 c2 53 0 62 -15 62 -12 0
-14 -3 -6 -8z"/>
<path d="M2933 2965 c0 -33 2 -45 4 -27 2 18 2 45 0 60 -2 15 -4 0 -4 -33z"/>
<path d="M4885 2975 c32 -20 60 -34 62 -31 6 5 -92 66 -107 66 -8 0 12 -16 45
-35z"/>
<path d="M2075 2990 c-3 -5 -1 -10 4 -10 6 0 11 5 11 10 0 6 -2 10 -4 10 -3 0
-8 -4 -11 -10z"/>
<path d="M2113 2985 c0 -8 4 -15 9 -15 4 0 8 7 8 15 0 8 -4 15 -8 15 -5 0 -9
-7 -9 -15z"/>
<path d="M2390 2975 c0 -14 4 -25 9 -25 4 0 6 11 3 25 -2 14 -6 25 -8 25 -2 0
-4 -11 -4 -25z"/>
<path d="M4539 2980 c49 -23 51 -23 51 -11 0 10 -54 31 -79 31 -9 0 4 -9 28
-20z"/>
<path d="M4610 2996 c0 -2 7 -7 16 -10 8 -3 12 -2 9 4 -6 10 -25 14 -25 6z"/>
<path d="M3212 2970 c0 -14 2 -19 5 -12 2 6 2 18 0 25 -3 6 -5 1 -5 -13z"/>
<path d="M5434 2918 c18 -40 36 -82 40 -92 3 -10 9 -16 12 -13 6 6 -71 177
-80 177 -2 0 10 -33 28 -72z"/>
<path d="M3063 2940 c0 -25 2 -35 4 -22 2 12 2 32 0 45 -2 12 -4 2 -4 -23z"/>
<path d="M3182 2960 c0 -14 2 -19 5 -12 2 6 2 18 0 25 -3 6 -5 1 -5 -13z"/>
<path d="M3553 2920 c0 -36 2 -50 4 -32 2 17 2 47 0 65 -2 17 -4 3 -4 -33z"/>
<path d="M4765 2919 c141 -71 185 -103 325 -236 118 -112 159 -175 212 -327
30 -83 33 -101 33 -211 0 -66 2 -106 6 -90 26 118 -3 275 -80 436 -37 76 -52
96 -148 185 -165 154 -183 168 -258 209 -103 56 -184 95 -197 95 -7 0 42 -27
107 -61z"/>
<path d="M3368 2953 c7 -3 16 -2 19 1 4 3 -2 6 -13 5 -11 0 -14 -3 -6 -6z"/>
<path d="M3415 2950 c3 -5 8 -10 11 -10 2 0 4 5 4 10 0 6 -5 10 -11 10 -5 0
-7 -4 -4 -10z"/>
<path d="M3870 2945 c0 -8 2 -15 4 -15 2 0 6 7 10 15 3 8 1 15 -4 15 -6 0 -10
-7 -10 -15z"/>
<path d="M3940 2949 c0 -5 5 -7 10 -4 6 3 10 8 10 11 0 2 -4 4 -10 4 -5 0 -10
-5 -10 -11z"/>
<path d="M3970 2956 c0 -2 9 -6 20 -9 11 -3 20 -1 20 4 0 5 -9 9 -20 9 -11 0
-20 -2 -20 -4z"/>
<path d="M4322 2930 c0 -14 2 -19 5 -12 2 6 2 18 0 25 -3 6 -5 1 -5 -13z"/>
<path d="M3212 2915 c0 -16 2 -22 5 -12 2 9 2 23 0 30 -3 6 -5 -1 -5 -18z"/>
<path d="M4103 2905 c0 -22 2 -30 4 -17 2 12 2 30 0 40 -3 9 -5 -1 -4 -23z"/>
<path d="M4360 2929 c0 -6 11 -22 25 -35 14 -13 25 -32 25 -44 0 -11 5 -20 11
-20 6 0 8 7 5 16 -3 9 -6 20 -6 24 0 5 -13 23 -30 40 -16 17 -30 25 -30 19z"/>
<path d="M2571 2914 c0 -11 3 -14 6 -6 3 7 2 16 -1 19 -3 4 -6 -2 -5 -13z"/>
<path d="M4244 2916 c-3 -8 -4 -29 -2 -48 3 -29 4 -27 8 15 5 48 3 58 -6 33z"/>
<path d="M2650 2910 c-23 -8 -23 -8 7 -7 17 1 29 5 27 9 -3 4 -6 8 -7 7 -1 -1
-13 -5 -27 -9z"/>
<path d="M4072 2900 c0 -14 2 -19 5 -12 2 6 2 18 0 25 -3 6 -5 1 -5 -13z"/>
<path d="M3448 2903 c6 -2 18 -2 25 0 6 3 1 5 -13 5 -14 0 -19 -2 -12 -5z"/>
<path d="M4172 2890 c0 -14 2 -19 5 -12 2 6 2 18 0 25 -3 6 -5 1 -5 -13z"/>
<path d="M4272 2885 c0 -16 2 -22 5 -12 2 9 2 23 0 30 -3 6 -5 -1 -5 -18z"/>
<path d="M2572 2870 c0 -14 2 -19 5 -12 2 6 2 18 0 25 -3 6 -5 1 -5 -13z"/>
<path d="M3581 2874 c0 -11 3 -14 6 -6 3 7 2 16 -1 19 -3 4 -6 -2 -5 -13z"/>
<path d="M4311 2874 c0 -11 3 -14 6 -6 3 7 2 16 -1 19 -3 4 -6 -2 -5 -13z"/>
<path d="M5277 2879 c7 -7 15 -10 18 -7 3 3 -2 9 -12 12 -14 6 -15 5 -6 -5z"/>
<path d="M4461 2818 c1 -24 3 -27 6 -10 l4 22 30 -21 c17 -12 32 -19 35 -17 2
3 -14 17 -36 32 l-40 26 1 -32z"/>
<path d="M4215 2830 c-3 -5 -1 -10 4 -10 6 0 11 5 11 10 0 6 -2 10 -4 10 -3 0
-8 -4 -11 -10z"/>
<path d="M3200 2780 c0 -5 5 -10 11 -10 5 0 7 5 4 10 -3 6 -8 10 -11 10 -2 0
-4 -4 -4 -10z"/>
<path d="M4292 2770 c0 -14 2 -19 5 -12 2 6 2 18 0 25 -3 6 -5 1 -5 -13z"/>
<path d="M4575 2775 c17 -8 38 -14 48 -15 17 0 17 -2 3 -22 -9 -12 -16 -35
-16 -51 l0 -29 -137 7 c-76 4 -141 9 -145 11 -3 2 -33 6 -65 9 -32 2 -86 7
-119 11 l-61 6 -6 -93 c-4 -52 -11 -227 -16 -389 -13 -389 -22 -592 -26 -607
-5 -15 -75 -17 -123 -4 -31 9 -32 9 -32 -20 0 -29 0 -29 -62 -29 -35 0 -135 4
-223 10 -88 5 -189 10 -225 11 -36 1 -173 7 -305 15 -132 7 -303 15 -381 19
l-141 6 -5 -163 c-3 -90 -5 -164 -4 -164 0 -1 82 -4 181 -8 l180 -6 0 132 0
133 60 3 c33 2 93 1 133 -3 l74 -7 -8 -134 -7 -134 85 0 c77 0 87 2 102 22 16
23 16 23 6 1 -14 -30 -13 -73 3 -77 6 -3 38 -7 70 -10 56 -6 58 -6 75 24 15
27 22 30 65 30 l47 0 0 135 0 135 111 0 111 0 -4 -140 c-3 -127 -2 -140 14
-140 9 0 18 9 20 21 8 58 88 39 88 -21 0 -23 5 -31 25 -36 14 -3 25 -14 26
-23 0 -12 3 -10 11 6 14 29 2 89 -24 115 -17 17 -27 19 -65 13 l-45 -7 7 114
c4 62 9 116 12 121 6 10 125 9 141 -1 10 -7 11 -38 3 -153 -7 -101 -6 -146 1
-150 10 -6 166 -13 558 -23 l145 -4 -3 131 c-2 72 0 142 3 155 5 22 9 23 53
18 26 -3 118 -8 204 -11 149 -5 158 -4 168 14 5 11 7 21 3 23 -5 3 -60 5 -123
6 -63 1 -157 5 -209 8 l-94 7 7 151 c4 83 11 294 16 470 6 175 13 323 16 327
3 5 -11 16 -31 24 -54 23 -113 82 -121 120 -8 45 3 75 28 75 36 0 12 24 -38
37 -62 16 -77 15 -39 -2z m-335 -159 c25 -3 117 -11 204 -16 l160 -11 46 -43
c25 -24 52 -45 59 -47 11 -4 11 -62 2 -319 -6 -173 -14 -371 -17 -439 l-7
-124 -156 7 c-86 3 -221 9 -300 13 l-144 6 7 196 c4 108 11 326 16 484 5 159
12 293 16 298 3 5 20 7 37 5 18 -3 52 -8 77 -10z m115 -1031 c327 -10 375 -14
375 -35 0 -17 -13 -17 -217 -13 -120 3 -274 8 -343 12 -122 6 -125 7 -128 30
-4 24 -3 24 60 18 34 -4 149 -9 253 -12z m-920 -235 c3 -5 -1 -10 -10 -10 -9
0 -13 5 -10 10 3 6 8 10 10 10 2 0 7 -4 10 -10z m65 -48 c0 -9 -7 -6 -20 11
-11 14 -20 29 -20 33 0 4 9 -1 20 -11 11 -10 20 -25 20 -33z"/>
<path d="M5501 2770 c14 -31 19 -36 19 -24 0 6 -7 19 -16 30 -14 18 -14 18 -3
-6z"/>
<path d="M2825 2770 c-3 -5 -1 -10 4 -10 6 0 11 5 11 10 0 6 -2 10 -4 10 -3 0
-8 -4 -11 -10z"/>
<path d="M2931 2764 c0 -11 3 -14 6 -6 3 7 2 16 -1 19 -3 4 -6 -2 -5 -13z"/>
<path d="M4490 2743 c0 -6 8 -17 18 -24 16 -13 16 -13 2 6 -8 11 -16 22 -17
24 -2 2 -3 0 -3 -6z"/>
<path d="M5520 2725 c1 -6 7 -21 16 -35 l15 -25 -7 25 c-7 26 -24 52 -24 35z"/>
<path d="M5550 2644 c0 -10 5 -26 10 -34 8 -11 9 -7 4 15 -8 37 -14 45 -14 19z"/>
<path d="M1360 2602 c-36 -27 -87 -65 -115 -84 -27 -19 -139 -99 -248 -177
-108 -77 -201 -141 -206 -141 -12 0 -42 -36 -35 -43 4 -3 34 13 68 37 33 24
79 53 101 65 22 12 63 37 90 56 28 20 106 73 175 118 69 46 145 97 169 115 24
18 50 32 58 32 8 0 13 12 13 35 0 19 -1 35 -3 35 -1 0 -32 -22 -67 -48z"/>
<path d="M3050 2579 c0 -5 5 -7 10 -4 6 3 10 8 10 11 0 2 -4 4 -10 4 -5 0 -10
-5 -10 -11z"/>
<path d="M5571 2565 c0 -11 4 -29 9 -40 l9 -20 0 20 c0 11 -4 29 -9 40 l-9 20
0 -20z"/>
<path d="M5592 2475 c0 -31 25 -122 27 -95 0 8 -6 40 -14 70 -9 39 -13 46 -13
25z"/>
<path d="M4943 2454 c9 -12 17 -26 17 -32 0 -7 7 -12 15 -12 20 0 9 21 -23 44
-27 20 -27 20 -9 0z"/>
<path d="M1432 2380 c0 -19 2 -27 5 -17 2 9 2 25 0 35 -3 9 -5 1 -5 -18z"/>
<path d="M4857 2403 c-4 -3 -7 -11 -7 -17 0 -6 5 -5 12 2 6 6 9 14 7 17 -3 3
-9 2 -12 -2z"/>
<path d="M4850 2348 c0 -18 68 -82 119 -111 18 -10 31 -14 31 -7 0 6 -11 15
-25 20 -39 15 -84 51 -105 85 -13 20 -20 24 -20 13z"/>
<path d="M849 2303 c-13 -16 -12 -17 4 -4 9 7 17 15 17 17 0 8 -8 3 -21 -13z"/>
<path d="M5622 2290 c0 -19 3 -55 7 -80 11 -61 12 -4 1 65 -6 41 -7 44 -8 15z"/>
<path d="M1422 2280 c0 -14 2 -19 5 -12 2 6 2 18 0 25 -3 6 -5 1 -5 -13z"/>
<path d="M804 2268 l-19 -23 23 19 c21 18 27 26 19 26 -2 0 -12 -10 -23 -22z"/>
<path d="M1413 2195 c-15 -17 -17 -29 -3 -20 6 4 10 -90 10 -266 0 -150 2
-274 5 -277 3 -3 5 126 5 286 0 161 -1 292 -2 292 -2 -1 -9 -7 -15 -15z"/>
<path d="M5036 2100 c38 -53 59 -69 28 -22 -33 51 -49 71 -56 72 -5 0 8 -22
28 -50z"/>
<path d="M5642 2095 c0 -16 2 -22 5 -12 2 9 2 23 0 30 -3 6 -5 -1 -5 -18z"/>
<path d="M5086 2097 c3 -10 9 -15 12 -12 3 3 0 11 -7 18 -10 9 -11 8 -5 -6z"/>
<path d="M5082 2035 c2 -5 18 -39 35 -75 17 -36 41 -108 54 -160 13 -52 26
-86 28 -75 7 38 -66 252 -100 295 -11 14 -19 21 -17 15z"/>
<path d="M5628 1925 c-4 -66 -14 -142 -22 -170 -20 -62 -20 -89 -1 -55 22 40
36 147 33 250 l-3 95 -7 -120z"/>
<path d="M3893 1995 c0 -22 2 -30 4 -17 2 12 2 30 0 40 -3 9 -5 -1 -4 -23z"/>
<path d="M5321 1994 c0 -11 3 -14 6 -6 3 7 2 16 -1 19 -3 4 -6 -2 -5 -13z"/>
<path d="M5156 1977 c3 -10 9 -15 12 -12 3 3 0 11 -7 18 -10 9 -11 8 -5 -6z"/>
<path d="M5312 1935 c0 -16 2 -22 5 -12 2 9 2 23 0 30 -3 6 -5 -1 -5 -18z"/>
<path d="M905 1940 c-3 -6 1 -7 9 -4 18 7 21 14 7 14 -6 0 -13 -4 -16 -10z"/>
<path d="M5170 1944 c0 -5 7 -18 15 -28 8 -11 15 -16 15 -10 0 5 -7 18 -15 28
-8 11 -15 16 -15 10z"/>
<path d="M770 1913 c0 -15 18 -35 27 -32 5 2 1 12 -9 22 -10 9 -18 14 -18 10z"/>
<path d="M5230 1832 c15 -32 40 -39 56 -17 8 10 14 24 13 29 0 6 -5 1 -11 -11
-6 -13 -17 -23 -23 -23 -7 0 -20 10 -29 23 l-17 22 11 -23z"/>
<path d="M850 1709 c0 -5 5 -7 10 -4 6 3 10 8 10 11 0 2 -4 4 -10 4 -5 0 -10
-5 -10 -11z"/>
<path d="M5202 1660 c0 -14 2 -19 5 -12 2 6 2 18 0 25 -3 6 -5 1 -5 -13z"/>
<path d="M5581 1663 c-1 -6 -4 -20 -7 -30 -5 -17 -5 -17 6 0 6 10 9 23 6 30
-3 9 -5 9 -5 0z"/>
<path d="M2225 1611 c-4 -17 1 -31 17 -48 l23 -25 -28 -20 c-33 -24 -34 -35
-2 -68 23 -24 24 -28 10 -40 -8 -7 -15 -21 -15 -31 0 -10 -5 -21 -11 -24 -5
-4 -9 -17 -7 -30 1 -12 -3 -29 -10 -38 -18 -21 -29 -93 -14 -83 7 4 12 15 12
25 0 10 7 24 15 31 8 7 15 28 15 46 0 25 4 34 16 34 12 0 15 6 10 24 -4 15 0
28 9 36 20 17 19 33 -5 55 -24 22 -25 38 -5 55 8 7 15 21 15 31 0 14 7 19 26
19 l27 0 -5 -110 c-5 -109 -5 -110 18 -116 19 -5 24 -13 25 -43 1 -20 3 -28 6
-18 4 14 16 17 76 17 l72 0 -1 62 c-1 35 1 109 5 166 3 56 6 103 6 103 0 1
-66 4 -147 8 l-147 6 -6 -24z"/>
<path d="M1420 1541 c0 -39 -4 -50 -17 -53 -15 -3 -14 -5 5 -10 21 -6 22 -3
22 53 0 32 -2 59 -5 59 -3 0 -5 -22 -5 -49z"/>
<path d="M5183 1559 c-7 -18 -11 -35 -8 -37 6 -6 27 48 23 60 -2 5 -9 -6 -15
-23z"/>
<path d="M4913 1410 c0 -47 2 -66 4 -42 2 23 2 61 0 85 -2 23 -4 4 -4 -43z"/>
<path d="M5155 1479 c-4 -6 -5 -12 -2 -15 2 -3 7 2 10 11 7 17 1 20 -8 4z"/>
<path d="M1328 1473 c7 -3 16 -2 19 1 4 3 -2 6 -13 5 -11 0 -14 -3 -6 -6z"/>
<path d="M1421 1444 c0 -11 3 -14 6 -6 3 7 2 16 -1 19 -3 4 -6 -2 -5 -13z"/>
<path d="M5117 1395 c-9 -19 -15 -35 -12 -35 7 0 37 61 33 66 -3 2 -12 -12
-21 -31z"/>
<path d="M1418 1390 c-3 -17 -1 -33 4 -36 4 -3 8 11 8 30 0 44 -6 47 -12 6z"/>
<path d="M5075 1324 c-9 -14 -15 -27 -13 -30 2 -2 12 10 22 26 21 37 15 40 -9
4z"/>
<path d="M1423 1280 c0 -36 2 -50 4 -32 2 17 2 47 0 65 -2 17 -4 3 -4 -33z"/>
<path d="M3720 1263 c-8 -2 -20 -6 -27 -8 -24 -8 6 -61 43 -79 31 -14 36 -21
32 -45 -3 -23 -1 -27 14 -23 32 8 50 71 35 118 -11 32 -58 50 -97 37z"/>
<path d="M4901 1238 c-1 -16 4 -28 9 -28 12 0 12 8 0 35 -8 18 -9 17 -9 -7z"/>
<path d="M3846 1197 c3 -10 9 -15 12 -12 3 3 0 11 -7 18 -10 9 -11 8 -5 -6z"/>
<path d="M4969 1183 l-24 -28 28 24 c15 14 27 26 27 28 0 8 -8 1 -31 -24z"/>
<path d="M3877 1159 c7 -7 15 -10 18 -7 3 3 -2 9 -12 12 -14 6 -15 5 -6 -5z"/>
<path d="M3958 1153 c7 -3 16 -2 19 1 4 3 -2 6 -13 5 -11 0 -14 -3 -6 -6z"/>
<path d="M3973 1140 c-31 -13 -29 -22 1 -10 38 14 51 -11 50 -94 l-2 -71 10
71 c9 63 8 74 -8 93 -20 23 -20 23 -51 11z"/>
<path d="M4919 1133 c-8 -9 -27 -22 -44 -29 -18 -8 -23 -13 -13 -14 16 0 92
59 77 60 -4 0 -13 -7 -20 -17z"/>
<path d="M3656 1131 c-3 -5 3 -11 15 -14 16 -4 18 -3 8 9 -13 16 -16 17 -23 5z"/>
<path d="M3845 1110 c3 -5 12 -7 20 -3 21 7 19 13 -6 13 -11 0 -18 -4 -14 -10z"/>
<path d="M4433 1103 c37 -2 97 -2 135 0 37 2 6 3 -68 3 -74 0 -105 -1 -67 -3z"/>
<path d="M3743 1080 c-45 -3 -84 -8 -88 -11 -13 -14 -33 -111 -40 -197 -6 -77
-5 -90 9 -95 12 -5 16 -21 17 -59 1 -58 16 -124 18 -80 1 13 6 20 11 17 6 -3
10 -33 10 -66 0 -38 -4 -58 -10 -54 -5 3 -11 18 -11 33 -2 23 -2 24 -6 5 -2
-13 3 -33 11 -45 9 -12 16 -33 16 -45 0 -13 4 -23 8 -23 5 0 7 26 5 58 -1 31
-4 85 -6 119 -4 69 -1 73 63 73 46 0 70 8 70 23 0 7 -4 7 -12 -1 -7 -7 -20
-12 -29 -12 -31 0 -14 177 30 306 11 33 19 59 18 59 -1 0 -39 -2 -84 -5z"/>
<path d="M4022 788 c-1 -21 -7 -38 -13 -38 -5 0 -7 -5 -3 -11 11 -19 26 18 21
54 -4 31 -4 31 -5 -5z"/>
<path d="M3805 770 c-17 -6 -16 -8 8 -14 21 -5 27 -13 28 -34 0 -15 3 -21 6
-14 2 6 14 12 26 13 21 0 21 1 3 12 -11 7 -27 19 -36 28 -10 9 -24 13 -35 9z"/>
<path d="M3483 729 c3 -12 1 -29 -5 -39 -8 -12 -8 -22 0 -35 8 -16 11 -12 17
29 l8 48 45 -6 c25 -3 52 -12 60 -19 13 -10 14 -9 10 3 -2 8 -20 17 -39 21
-107 21 -102 21 -96 -2z"/>
<path d="M3948 733 c7 -3 16 -2 19 1 4 3 -2 6 -13 5 -11 0 -14 -3 -6 -6z"/>
<path d="M4012 690 c0 -19 2 -27 5 -17 2 9 2 25 0 35 -3 9 -5 1 -5 -18z"/>
<path d="M3503 660 c2 -8 8 -26 12 -39 5 -18 4 -22 -6 -16 -8 5 -4 -3 9 -17
24 -27 29 -57 10 -76 -9 -9 -9 -12 0 -12 15 0 26 43 17 71 -7 21 -5 22 44 17
29 -3 49 -2 44 3 -4 4 -28 9 -53 11 -40 3 -47 7 -63 38 -10 19 -16 28 -14 20z"/>
<path d="M4002 610 c0 -14 2 -19 5 -12 2 6 2 18 0 25 -3 6 -5 1 -5 -13z"/>
<path d="M3870 588 c-1 -23 -1 -23 -17 -3 -15 19 -15 19 -9 1 4 -12 0 -27 -11
-40 -16 -19 -17 -20 -1 -7 10 7 25 11 33 7 12 -4 15 2 15 29 0 19 -2 35 -5 35
-3 0 -5 -10 -5 -22z"/>
<path d="M3901 553 c0 -12 -4 -30 -7 -40 -5 -14 -4 -15 5 -7 7 6 11 24 8 40
-3 21 -4 23 -6 7z"/>
<path d="M4515 490 c-3 -6 1 -7 9 -4 18 7 21 14 7 14 -6 0 -13 -4 -16 -10z"/>
<path d="M3892 455 c0 -16 2 -22 5 -12 2 9 2 23 0 30 -3 6 -5 -1 -5 -18z"/>
</g>
</svg>
